<svg width="13" height="12" viewBox="0 0 13 12" fill="none" xmlns="http://www.w3.org/2000/svg">
<g clip-path="url(#clip0_39_164)">
<path d="M6.20083 3.64299L5.36936 4.48855C6.03169 4.58016 6.46155 4.79155 6.78571 5.11568C7.72992 6.05989 7.72992 7.3846 6.79978 8.31474L4.99589 10.1186C4.05873 11.0558 2.73401 11.0558 1.78978 10.1186C0.838521 9.16737 0.845568 7.84266 1.78274 6.91252L2.73401 5.96125C2.55784 5.55257 2.51556 5.0875 2.56489 4.6929L1.02173 6.23607C-0.338227 7.58898 -0.345274 9.51263 1.02878 10.8797C2.39578 12.2537 4.3124 12.2467 5.67235 10.8867L7.56077 8.99119C8.91368 7.63828 8.92072 5.72167 7.55374 4.34763C7.24371 4.03758 6.84205 3.80505 6.20083 3.64299ZM5.6794 8.2584L6.50382 7.41983C5.84146 7.32826 5.41163 7.11684 5.09455 6.79274C4.15033 5.84851 4.15033 4.52379 5.08045 3.59366L6.88432 1.78978C7.8215 0.852615 9.1462 0.845568 10.0904 1.78978C11.0347 2.74105 11.0276 4.06577 10.0975 4.9959L9.1462 5.94716C9.32238 6.35585 9.36465 6.82095 9.31535 7.21551L10.8585 5.67235C12.2184 4.3124 12.2255 2.39578 10.8515 1.02878C9.48443 -0.345274 7.56077 -0.338227 6.20787 1.02173L4.31944 2.91721C2.96653 4.27012 2.95244 6.18676 4.32649 7.56078C4.63653 7.8708 5.03818 8.10338 5.6794 8.2584Z" fill="black" fill-opacity="0.85"/>
</g>
<defs>
<clipPath id="clip0_39_164">
<rect width="12.0916" height="12" fill="white"/>
</clipPath>
</defs>
</svg>
