<svg width="18" height="12" viewBox="0 0 18 12" fill="none" xmlns="http://www.w3.org/2000/svg">
<g clip-path="url(#clip0_38_146)">
<path d="M9.20662 6.77557C9.43617 6.77557 9.65878 6.6851 9.87444 6.49033L16.824 0.368576C16.4484 0.118141 16.0171 0.00683594 15.4188 0.00683594H3.00139C2.40313 0.00683594 1.97182 0.118141 1.58921 0.368576L8.53879 6.49033C8.7614 6.6851 8.98401 6.77557 9.20662 6.77557ZM0.99791 10.8729L6.14574 5.73207L0.983996 1.18249C0.907475 1.32858 0.817039 1.68336 0.817039 2.16336V9.84336C0.817039 10.2886 0.886605 10.6086 0.99791 10.8729ZM2.79269 11.9999H15.6275C16.1353 11.9999 16.5319 11.8747 16.7962 11.6938L11.5023 6.39986L10.4866 7.30425C10.0832 7.659 9.64489 7.83988 9.20662 7.83988C8.77529 7.83988 8.33707 7.659 7.93359 7.30425L6.9179 6.39986L1.624 11.6938C1.88835 11.8747 2.27791 11.9999 2.79269 11.9999ZM17.4223 10.8729C17.5266 10.6086 17.6031 10.2886 17.6031 9.84336V2.16336C17.6031 1.68336 17.5127 1.32858 17.4362 1.18249L12.2745 5.73207L17.4223 10.8729Z" fill="black" fill-opacity="0.85"/>
</g>
<defs>
<clipPath id="clip0_38_146">
<rect width="16.9948" height="12" fill="white" transform="translate(0.817039)"/>
</clipPath>
</defs>
</svg>
