<svg width="26" height="23" viewBox="0 0 26 23" fill="none" xmlns="http://www.w3.org/2000/svg">
<path d="M0 0.690918H7.97104C14.6029 0.690918 18.6418 4.80982 18.6418 11.2389C18.6418 17.668 14.6189 21.7869 7.97104 21.7869H0V0.690918ZM7.70961 16.9958C11.2149 16.9958 13.1784 14.7603 13.1784 11.2229C13.1784 7.68558 11.2149 5.41271 7.70961 5.41271H5.44208V16.9958H7.70961Z" fill="white"/>
<path d="M22.7984 15.6035C23.2208 15.5963 23.6403 15.6741 24.0319 15.8325C24.4236 15.9908 24.7793 16.2263 25.078 16.525C25.3768 16.8237 25.6123 17.1795 25.7706 17.5712C25.9289 17.9628 26.0068 18.3823 25.9996 18.8047C26.0038 19.2278 25.9241 19.6475 25.7652 20.0396C25.6062 20.4317 25.371 20.7884 25.0734 21.089C24.7757 21.3897 24.4213 21.6284 24.0308 21.7912C23.6403 21.9541 23.2215 22.038 22.7984 22.0379C22.3776 22.0366 21.9614 21.9515 21.5739 21.7876C21.1864 21.6237 20.8354 21.3843 20.5414 21.0834C20.2474 20.7824 20.0162 20.4259 19.8614 20.0347C19.7067 19.6435 19.6313 19.2254 19.6398 18.8047C19.6312 18.3856 19.7068 17.969 19.8619 17.5795C20.0171 17.19 20.2487 16.8356 20.5432 16.5372C20.8376 16.2388 21.1889 16.0024 21.5762 15.842C21.9636 15.6817 22.3792 15.6005 22.7984 15.6035Z" fill="white"/>
</svg>
