<svg width="26" height="22" viewBox="0 0 26 22" fill="none" xmlns="http://www.w3.org/2000/svg">
<path d="M0 0H7.97104C14.6029 0 18.6418 4.1189 18.6418 10.548C18.6418 16.9771 14.6189 21.096 7.97104 21.096H0V0ZM7.70961 16.3049C11.2149 16.3049 13.1784 14.0694 13.1784 10.532C13.1784 6.99466 11.2149 4.72179 7.70961 4.72179H5.44208V16.3049H7.70961Z" fill="#181818"/>
<path d="M22.7984 14.9126C23.2208 14.9053 23.6403 14.9832 24.0319 15.1415C24.4236 15.2999 24.7793 15.5354 25.078 15.8341C25.3768 16.1328 25.6123 16.4886 25.7706 16.8802C25.9289 17.2719 26.0068 17.6914 25.9996 18.1138C26.0038 18.5369 25.9241 18.9566 25.7652 19.3487C25.6062 19.7408 25.371 20.0975 25.0734 20.3981C24.7757 20.6988 24.4213 20.9374 24.0308 21.1003C23.6404 21.2632 23.2215 21.347 22.7984 21.347C22.3776 21.3457 21.9614 21.2606 21.5739 21.0967C21.1864 20.9328 20.8354 20.6934 20.5414 20.3925C20.2474 20.0915 20.0162 19.735 19.8614 19.3438C19.7067 18.9526 19.6313 18.5344 19.6398 18.1138C19.6312 17.6946 19.7068 17.278 19.8619 16.8886C20.0171 16.4991 20.2487 16.1447 20.5432 15.8463C20.8376 15.5479 21.1889 15.3115 21.5762 15.1511C21.9636 14.9907 22.3792 14.9096 22.7984 14.9126V14.9126Z" fill="#181818"/>
</svg>
